<svg xmlns="http://www.w3.org/2000/svg" width="512" height="512" viewBox="0 0 512 512">
    <rect width="512" height="512" rx="96" fill="#000000"/>
    <g transform="translate(103, 123) scale(0.5836501901140685)">
      <path d="M130.8 0.0L0.0 225.8L0.0 229.0L130.5 454.8L246.2 454.8L220.8 410.5L157.0 409.2L52.5 228.2L158.5 44.5L191.2 44.8L208.2 74.5L118.5 230.8L189.0 353.8L216.0 354.5L323.8 168.8L355.2 223.2L265.0 381.2L307.2 454.8L395.2 454.8L525.8 229.2L525.8 226.0L395.0 0.0L279.5 0.0L305.0 44.2L367.2 44.5L473.5 227.0L368.8 409.2L336.8 410.5L333.8 409.2L317.5 380.0L407.2 222.8L336.8 100.8L310.5 100.0L202.0 286.0L170.8 231.2L261.0 74.2L218.2 0.0Z" fill="#ffffff"/>
    </g>
  </svg>