<svg width="100" height="100" viewBox="0 0 100 100" fill="none" xmlns="http://www.w3.org/2000/svg">
  <defs>
    <radialGradient id="favCoreGlow" cx="50%" cy="50%" r="50%">
      <stop offset="0%" stop-color="#38bdf8" stop-opacity="0.9"/>
      <stop offset="45%" stop-color="#2563eb" stop-opacity="0.5"/>
      <stop offset="100%" stop-color="#000000" stop-opacity="0"/>
    </radialGradient>
    <linearGradient id="favGrad1" x1="0%" y1="0%" x2="100%" y2="100%">
      <stop offset="0%" stop-color="#38bdf8"/>
      <stop offset="60%" stop-color="#2563eb"/>
      <stop offset="100%" stop-color="#818cf8"/>
    </linearGradient>
    <linearGradient id="favGrad2" x1="0%" y1="0%" x2="100%" y2="100%">
      <stop offset="0%" stop-color="#60a5fa"/>
      <stop offset="65%" stop-color="#a855f7"/>
      <stop offset="100%" stop-color="#c084fc"/>
    </linearGradient>
    <linearGradient id="favGrad3" x1="0%" y1="0%" x2="100%" y2="100%">
      <stop offset="0%" stop-color="#38bdf8"/>
      <stop offset="70%" stop-color="#0284c7"/>
      <stop offset="100%" stop-color="#1d4ed8"/>
    </linearGradient>
    <filter id="favBloomGlow" x="-30%" y="-30%" width="160%" height="160%">
      <feGaussianBlur stdDeviation="3" result="blur"/>
      <feMerge>
        <feMergeNode in="blur"/>
        <feMergeNode in="SourceGraphic"/>
      </feMerge>
    </filter>
  </defs>
  <rect width="100" height="100" rx="26" fill="#070709"/>
  <circle cx="50" cy="50" r="34" fill="url(#favCoreGlow)"/>
  <!-- 6 Pinwheel Origami Petals -->
  <g id="favPetals">
    <g transform="rotate(0 50 50)"><path d="M50 10 C68 10 84 22 84 38 C84 46 76 52 64 48 C56 45 52 35 50 10 Z" fill="url(#favGrad1)" opacity="0.95"/></g>
    <g transform="rotate(60 50 50)"><path d="M50 10 C68 10 84 22 84 38 C84 46 76 52 64 48 C56 45 52 35 50 10 Z" fill="url(#favGrad2)" opacity="0.95"/></g>
    <g transform="rotate(120 50 50)"><path d="M50 10 C68 10 84 22 84 38 C84 46 76 52 64 48 C56 45 52 35 50 10 Z" fill="url(#favGrad2)" opacity="0.95"/></g>
    <g transform="rotate(180 50 50)"><path d="M50 10 C68 10 84 22 84 38 C84 46 76 52 64 48 C56 45 52 35 50 10 Z" fill="url(#favGrad3)" opacity="0.95"/></g>
    <g transform="rotate(240 50 50)"><path d="M50 10 C68 10 84 22 84 38 C84 46 76 52 64 48 C56 45 52 35 50 10 Z" fill="url(#favGrad1)" opacity="0.95"/></g>
    <g transform="rotate(300 50 50)"><path d="M50 10 C68 10 84 22 84 38 C84 46 76 52 64 48 C56 45 52 35 50 10 Z" fill="url(#favGrad3)" opacity="0.95"/></g>
  </g>
  <!-- Radiant 4-pointed AI Core Star -->
  <path d="M50 35 Q50 50 65 50 Q50 50 50 65 Q50 50 35 50 Q50 50 50 35 Z" fill="#ffffff" filter="url(#favBloomGlow)"/>
  <circle cx="50" cy="50" r="2.5" fill="#ffffff"/>
</svg>